<svg xmlns="http://www.w3.org/2000/svg" width="25" height="24" fill="none"><path fill="#B0F2AE" d="M12.667 24c5.258 0 8.181 0 10.09-1.91 1.91-1.909 1.91-4.832 1.91-10.09s0-8.181-1.91-10.09C20.849 0 17.925 0 12.668 0S4.485 0 2.576 1.91C.666 3.817.666 6.741.666 12s0 8.181 1.91 10.09C4.486 24 7.408 24 12.666 24Z"/><mask id="a" width="23" height="22" x="1" y="1" maskUnits="userSpaceOnUse" style="mask-type:alpha"><path fill="#0C0D0D" d="M12.5 23c4.82 0 7.5 0 9.25-1.75S23.5 16.82 23.5 12s0-7.5-1.75-9.25S17.32 1 12.5 1 5 1 3.25 2.75 1.5 7.18 1.5 12s0 7.5 1.75 9.25S7.68 23 12.5 23Z"/></mask><g mask="url(#a)"><g filter="url(#b)"><ellipse cx="12.772" cy="15.867" fill="#000" fill-opacity=".5" rx="6.574" ry="5.414"/></g><g filter="url(#c)"><ellipse cx="12.296" cy="12.805" fill="#000" fill-opacity=".5" rx="5.613" ry="5.414"/></g><path fill="#1A1A1A" d="M19.11 7.348c-.315-1.184-1.058-2.855-3.708-4.102C11.023 1.187 8.07 5.561 8.07 5.561c-1.18-.13-1.82.337-2.075 1.436-.22.94.076 2.774.236 3.478l.872 4.783.843-4.245c.828-2.792 2.087-3.93 2.087-3.93l4.001-.328 4.244 8.096.825-4.79a8.252 8.252 0 0 0 .115-1.844c-.019-.355-.053-.665-.108-.87Z"/><path fill="url(#d)" d="M19.11 7.348c-.315-1.184-1.058-2.855-3.708-4.102C11.023 1.187 8.07 5.561 8.07 5.561c-1.18-.13-1.82.337-2.075 1.436-.22.94.076 2.774.236 3.478l.872 4.783.843-4.245c.828-2.792 2.087-3.93 2.087-3.93l4.001-.328 4.244 8.096.825-4.79a8.252 8.252 0 0 0 .115-1.844c-.019-.355-.053-.665-.108-.87Z"/><path fill="#F3A396" d="M20.05 14.273c0-.724-.588-1.312-1.313-1.312h-.656c-.777 0-1.406.63-1.406 1.406v.525c0 .746.604 1.35 1.35 1.35h.056a1.969 1.969 0 0 0 1.969-1.969Z"/><path fill="url(#e)" fill-opacity=".2" d="M20.05 14.273c0-.724-.588-1.312-1.313-1.312h-.656c-.777 0-1.406.63-1.406 1.406v.525c0 .746.604 1.35 1.35 1.35h.056a1.969 1.969 0 0 0 1.969-1.969Z"/><g filter="url(#f)"><ellipse cx="18.583" cy="14.607" fill="#D26665" fill-opacity=".5" rx=".762" ry="1.09" transform="rotate(21.735 18.583 14.607)"/></g><path fill="#F3A396" d="M5.284 14.273c0-.724.588-1.312 1.312-1.312h.657c.776 0 1.406.63 1.406 1.406v.525a1.35 1.35 0 0 1-1.35 1.35h-.056a1.969 1.969 0 0 1-1.97-1.969Z"/><path fill="url(#g)" fill-opacity=".2" d="M5.284 14.273c0-.724.588-1.312 1.312-1.312h.657c.776 0 1.406.63 1.406 1.406v.525a1.35 1.35 0 0 1-1.35 1.35h-.056a1.969 1.969 0 0 1-1.97-1.969Z"/><g filter="url(#h)"><ellipse cx=".762" cy="1.09" fill="#D26665" fill-opacity=".5" rx=".762" ry="1.09" transform="scale(-1 1) rotate(21.735 -38.2 -11.718)"/></g><path fill="#F3A396" d="M6.807 11.253c0-.547 0-.82.026-1.05a4.219 4.219 0 0 1 3.732-3.732c.23-.026.503-.026 1.05-.026h2.08c.547 0 .82 0 1.05.026a4.219 4.219 0 0 1 3.732 3.732c.026.23.026.503.026 1.05v2.165a5.848 5.848 0 0 1-11.695 0v-2.165Z"/><path fill="url(#i)" fill-opacity=".2" d="M6.807 11.253c0-.547 0-.82.026-1.05a4.219 4.219 0 0 1 3.732-3.732c.23-.026.503-.026 1.05-.026h2.08c.547 0 .82 0 1.05.026a4.219 4.219 0 0 1 3.732 3.732c.026.23.026.503.026 1.05v2.165a5.848 5.848 0 0 1-11.695 0v-2.165Z"/><path fill="#1A1A1A" d="M10.136 12.791c0-.268.217-.486.486-.486h.105c.269 0 .487.218.487.486v.24a.539.539 0 1 1-1.078 0v-.24ZM14.003 12.791c0-.268.218-.486.486-.486h.105c.269 0 .487.218.487.486v.24a.539.539 0 1 1-1.078 0v-.24Z"/><ellipse cx="12.585" cy="14.707" fill="#D26665" rx=".785" ry=".246"/><path fill="#1A1A1A" fill-rule="evenodd" d="M10.292 11.149a1.41 1.41 0 0 0-.39.153.352.352 0 0 1-.33-.62c.192-.103.365-.177.574-.221.202-.043.423-.055.704-.055a.352.352 0 1 1 0 .703c-.269 0-.43.012-.558.04Z" clip-rule="evenodd"/><path fill="#1A1A1A" fill-rule="evenodd" d="M10.274 11.17c-.12.019-.223.053-.371.132a.352.352 0 0 1-.331-.62c.203-.109.38-.173.592-.207.197-.031.416-.034.686-.034a.352.352 0 1 1 0 .704c-.28 0-.442.003-.576.024ZM14.912 11.149c.122.026.231.069.39.153a.352.352 0 0 0 .33-.62 2.105 2.105 0 0 0-.573-.221 3.384 3.384 0 0 0-.705-.055.352.352 0 1 0 0 .703c.27 0 .43.012.559.04Z" clip-rule="evenodd"/><path fill="#1A1A1A" fill-rule="evenodd" d="M14.93 11.17c.12.019.224.053.372.132a.352.352 0 0 0 .33-.62 1.803 1.803 0 0 0-.591-.207 4.475 4.475 0 0 0-.687-.034.352.352 0 1 0 0 .704c.28 0 .443.003.576.024Z" clip-rule="evenodd"/><path fill="#1A1A1A" d="M17.76 6.212c-.145.05-4.827-1.29-4.827-1.29l-4.11 1.29a.2.2 0 0 0 .003.006c-3.613 1.009-2.02 4.54-2.02 4.54 1.486-.788 1.376-2.403 1.658-3.566.657.892 3.175 2.517 6.273 2.455 3.173-.063 3.531-1.339 3.531-1.339s-.363-2.147-.508-2.096Z"/><path fill="url(#j)" d="M17.76 6.212c-.145.05-4.827-1.29-4.827-1.29l-4.11 1.29a.2.2 0 0 0 .003.006c-3.613 1.009-2.02 4.54-2.02 4.54 1.486-.788 1.376-2.403 1.658-3.566.657.892 3.175 2.517 6.273 2.455 3.173-.063 3.531-1.339 3.531-1.339s-.363-2.147-.508-2.096Z"/><path fill="#613030" d="M14.824 15.81c-.076-.083-1.02-.13-2.235-.13-1.215 0-2.158.047-2.234.13-.085.055.45 1.974 2.234 1.974 1.785 0 2.32-1.919 2.235-1.973Z"/><mask id="k" width="5" height="3" x="10" y="15" maskUnits="userSpaceOnUse" style="mask-type:alpha"><path fill="#000" d="M14.824 15.81c-.076-.083-1.02-.13-2.235-.13-1.215 0-2.158.047-2.234.13-.085.055.45 1.974 2.234 1.974 1.785 0 2.32-1.919 2.235-1.973Z"/></mask><g mask="url(#k)"><path fill="#D23D25" d="M14.528 17.117c-.486.761-1.209 1.486-2 1.454-.86-.032-1.494-.72-1.877-1.378.67-.588 2.446-1.254 3.877-.076Z"/><path fill="#fff" d="M14.273 15.318c-.012.534-.134.534-.134.534-.5.25-2.41.478-3.13 0-.076-.05-.09-.303-.104-.474a.186.186 0 0 1 .113-.05c1.193-.07 2.715-.182 3.255-.01Z"/></g><path fill="#1A1A1A" d="M3.94 16.515a.844.844 0 0 1 .844-.882H20.76c.48 0 .864.401.843.882l-.393 8.695a.844.844 0 0 1-.843.806H5.176a.844.844 0 0 1-.843-.806l-.392-8.695Z"/><path fill="url(#l)" fill-opacity=".1" d="M3.94 16.515a.844.844 0 0 1 .844-.882H20.76c.48 0 .864.401.843.882l-.393 8.695a.844.844 0 0 1-.843.806H5.176a.844.844 0 0 1-.843-.806l-.392-8.695Z"/><circle cx="12.772" cy="20.824" r="1.652" fill="#363535"/><ellipse cx="12.751" cy="20.833" fill="#fff" rx=".75" ry=".5"/></g><defs><linearGradient id="d" x1="12.573" x2="12.573" y1="7.781" y2="10.723" gradientUnits="userSpaceOnUse"><stop stop-color="#1A1A1A"/><stop offset="1" stop-color="#4A4A4A"/></linearGradient><linearGradient id="e" x1="18.362" x2="18.362" y1="15.339" y2="16.242" gradientUnits="userSpaceOnUse"><stop stop-color="#F3A396"/><stop offset="1" stop-color="#D26665"/></linearGradient><linearGradient id="g" x1="6.971" x2="6.971" y1="15.339" y2="16.242" gradientUnits="userSpaceOnUse"><stop stop-color="#F3A396"/><stop offset="1" stop-color="#D26665"/></linearGradient><linearGradient id="i" x1="12.655" x2="12.655" y1="15.738" y2="19.266" gradientUnits="userSpaceOnUse"><stop stop-color="#F3A396"/><stop offset="1" stop-color="#D26665"/></linearGradient><linearGradient id="j" x1="12.362" x2="12.362" y1="7.852" y2="10.758" gradientUnits="userSpaceOnUse"><stop stop-color="#1A1A1A"/><stop offset="1" stop-color="#4A4A4A"/></linearGradient><linearGradient id="l" x1="12.772" x2="12.772" y1="15.633" y2="26.25" gradientUnits="userSpaceOnUse"><stop stop-color="#fff"/><stop offset=".536" stop-color="#fff" stop-opacity="0"/></linearGradient><filter id="b" width="22.523" height="20.203" x="1.51" y="5.766" color-interpolation-filters="sRGB" filterUnits="userSpaceOnUse"><feFlood flood-opacity="0" result="BackgroundImageFix"/><feBlend in="SourceGraphic" in2="BackgroundImageFix" result="shape"/><feGaussianBlur result="effect1_foregroundBlur_709_499" stdDeviation="2.344"/></filter><filter id="c" width="16.852" height="16.453" x="3.87" y="4.578" color-interpolation-filters="sRGB" filterUnits="userSpaceOnUse"><feFlood flood-opacity="0" result="BackgroundImageFix"/><feBlend in="SourceGraphic" in2="BackgroundImageFix" result="shape"/><feGaussianBlur result="effect1_foregroundBlur_709_499" stdDeviation="1.406"/></filter><filter id="f" width="2.567" height="3.04" x="17.299" y="13.087" color-interpolation-filters="sRGB" filterUnits="userSpaceOnUse"><feFlood flood-opacity="0" result="BackgroundImageFix"/><feBlend in="SourceGraphic" in2="BackgroundImageFix" result="shape"/><feGaussianBlur result="effect1_foregroundBlur_709_499" stdDeviation=".234"/></filter><filter id="h" width="2.567" height="3.04" x="5.468" y="13.087" color-interpolation-filters="sRGB" filterUnits="userSpaceOnUse"><feFlood flood-opacity="0" result="BackgroundImageFix"/><feBlend in="SourceGraphic" in2="BackgroundImageFix" result="shape"/><feGaussianBlur result="effect1_foregroundBlur_709_499" stdDeviation=".234"/></filter></defs></svg>