<svg width="24" height="24" viewBox="0 0 24 24" fill="none" xmlns="http://www.w3.org/2000/svg">
<g clip-path="url(#clip0_676_660)">
<circle cx="12.1875" cy="12.1875" r="6.9375" fill="white"/>
<path d="M12.12 22.3659C17.715 22.3659 22.3654 17.7253 22.3654 12.1204C22.3654 6.52543 17.7047 1.875 12.1097 1.875C6.50529 1.875 1.875 6.52543 1.875 12.1204C1.875 17.7253 6.51514 22.3659 12.12 22.3659ZM12.1406 17.3439C11.6083 17.3439 11.2766 17.0121 11.2869 16.4897L11.3871 13.4464L8.63486 15.2143C8.484 15.3249 8.32329 15.375 8.11243 15.375C7.701 15.375 7.30886 15.0536 7.30886 14.5311C7.30886 14.2097 7.46957 13.9783 7.791 13.7983L10.6539 12.1911L7.78114 10.614C7.46957 10.4229 7.30886 10.2017 7.30886 9.86057C7.30886 9.33771 7.70057 9.02657 8.11243 9.02657C8.32329 9.02657 8.484 9.07671 8.63528 9.16714L11.3871 10.9149L11.2869 7.791C11.2766 7.25871 11.6083 6.91714 12.1406 6.91714C12.6626 6.91714 12.9643 7.23857 12.954 7.79143L12.8537 10.9149L15.606 9.15729C15.763 9.06162 15.9442 9.01284 16.128 9.01671C16.5399 9.01671 16.932 9.33814 16.932 9.85029C16.932 10.182 16.7709 10.413 16.4494 10.6037L13.5669 12.1907L16.4494 13.7979C16.7709 13.9886 16.932 14.2097 16.932 14.541C16.932 15.0536 16.5399 15.3853 16.128 15.3853C15.9171 15.3853 15.7564 15.3347 15.606 15.2344L12.8537 13.4464L12.954 16.4897C12.9643 17.0323 12.6626 17.3439 12.1406 17.3439Z" fill="black"/>
</g>
<defs>
<clipPath id="clip0_676_660">
<rect width="24" height="24" fill="white"/>
</clipPath>
</defs>
</svg>
