<svg xmlns="http://www.w3.org/2000/svg" width="24" height="24" fill="none"><g clip-path="url(#a)"><circle cx="12.188" cy="12.188" r="8.188" fill="#fff"/><path fill="#027E6F" d="M12.086 1.451c-5.892 0-10.67 4.776-10.67 10.67v10.67H12.09c.734 0 1.454-.074 2.148-.217 4.863-.995 8.519-5.296 8.519-10.452 0-5.895-4.776-10.67-10.67-10.67Zm.021 18.067c-4.217 0-7.624-3.53-7.417-7.793.179-3.712 3.187-6.787 6.896-7.042a7.388 7.388 0 0 1 5.624 2.015l-1.016 1.76a5.46 5.46 0 0 0-4.084-1.836c-3.93 0-6.91 4.178-4.73 8.33a4.459 4.459 0 0 0 1.91 1.89c3.79 1.964 7.584-.359 8.204-3.768H13.53l1.132-1.962h4.808c.042.32.068.646.068.98 0 4.095-3.213 7.428-7.43 7.428v-.002Z"/></g><defs><clipPath id="a"><path fill="#fff" d="M0 0h24v24H0z"/></clipPath></defs></svg>