<svg xmlns="http://www.w3.org/2000/svg" width="36" height="36" fill="none"><rect width="36" height="36" fill="#000" rx="4"/><path fill="#fff" fill-rule="evenodd" d="m9.893 22.7 4.833-8.37a1.036 1.036 0 1 0-1.794-1.035l-4.833 8.37a1.036 1.036 0 1 0 1.794 1.036Zm5.144-10.98a2.416 2.416 0 0 0-3.3.884l-4.834 8.37a2.416 2.416 0 1 0 4.186 2.417l4.832-8.37a2.416 2.416 0 0 0-.884-3.301Z" clip-rule="evenodd"/><path fill="#fff" d="m18.837 17.517-.645-1.116a3.86 3.86 0 0 1-.145-.277l-2.801 4.85a2.416 2.416 0 0 0 4.185 2.417l1.398-2.422-.797-1.38-1.797 3.112a1.036 1.036 0 1 1-1.793-1.036l2.395-4.148Z"/><path fill="#fff" fill-rule="evenodd" d="m26.107 22.7-4.833-8.37a1.036 1.036 0 1 1 1.794-1.035l4.833 8.37a1.035 1.035 0 1 1-1.794 1.036Zm-5.144-10.98a2.416 2.416 0 0 1 3.3.884l4.833 8.37a2.416 2.416 0 0 1-4.185 2.417l-4.833-8.37a2.416 2.416 0 0 1 .885-3.301Z" clip-rule="evenodd"/></svg>