<svg xmlns="http://www.w3.org/2000/svg" width="25" height="24" fill="none"><path fill="#000" d="M12.334 24c5.258 0 8.181 0 10.09-1.91 1.91-1.909 1.91-4.832 1.91-10.09s0-8.181-1.91-10.09C20.515 0 17.592 0 12.334 0 7.075 0 4.152 0 2.243 1.91.333 3.817.333 6.741.333 12s0 8.181 1.91 10.09C4.152 24 7.075 24 12.333 24Z"/><path fill="#fff" d="M12.334 8.75a.5.5 0 0 1 .5-.5h6.5a.5.5 0 0 1 .5.5v1.5a.5.5 0 0 1-.5.5h-7v-2ZM12.334 13.25h7a.5.5 0 0 1 .5.5v1.5a.5.5 0 0 1-.5.5h-6.5a.5.5 0 0 1-.5-.5v-2ZM9.834 10.75h2.5v2.5h-2.5v-2.5ZM4.833 11.25a.5.5 0 0 1 .5-.5h2v2.5h-2a.5.5 0 0 1-.5-.5v-1.5ZM7.333 8.75a.5.5 0 0 1 .5-.5h1.5a.5.5 0 0 1 .5.5v2h-2.5v-2ZM7.333 13.25h2.5v2a.5.5 0 0 1-.5.5h-1.5a.5.5 0 0 1-.5-.5v-2Z"/></svg>