<svg xmlns="http://www.w3.org/2000/svg" width="24" height="24" fill="none"><g clip-path="url(#a)"><path fill="#3A3670" d="M12 24c5.258 0 8.181 0 10.09-1.91C24 20.182 24 17.259 24 12s0-8.181-1.91-10.09C20.182 0 17.259 0 12 0S3.819 0 1.91 1.91C0 3.817 0 6.741 0 12s0 8.181 1.91 10.09C3.817 24 6.741 24 12 24Z"/><path fill="#D3A0FF" d="M6.517 8.322a1.804 1.804 0 1 0 0-3.609 1.804 1.804 0 0 0 0 3.609Z"/><path fill="#FC7FAF" d="M11.903 8.322a1.804 1.804 0 1 0 0-3.609 1.804 1.804 0 0 0 0 3.609Z"/><path fill="#F49420" d="M17.44 8.322a1.804 1.804 0 1 0 0-3.609 1.804 1.804 0 0 0 0 3.609Z"/><path fill="#F9D009" d="M6.517 13.859a1.804 1.804 0 1 0 0-3.609 1.804 1.804 0 0 0 0 3.609Z"/><path fill="#48C171" d="M11.903 13.859a1.804 1.804 0 1 0 0-3.609 1.804 1.804 0 0 0 0 3.609Z"/><path fill="#84B54A" d="M17.44 13.859a1.804 1.804 0 1 0 0-3.609 1.804 1.804 0 0 0 0 3.609Z"/><path fill="#1AC0E1" d="M6.517 19.244a1.804 1.804 0 1 0 0-3.608 1.804 1.804 0 0 0 0 3.608Z"/><path fill="#80D2EE" d="M11.903 19.244a1.804 1.804 0 1 0 0-3.608 1.804 1.804 0 0 0 0 3.608Z"/><path fill="#CCB0BB" d="M17.44 19.244a1.804 1.804 0 1 0 0-3.608 1.804 1.804 0 0 0 0 3.608Z"/></g><defs><clipPath id="a"><path fill="#fff" d="M0 0h24v24H0z"/></clipPath></defs></svg>